<?xml version="1.0" encoding="UTF-8"?>
<svg data-bbox="-0.002 -0.003 1004.991 662.731" viewBox="0 0 1004.988 662.729" height="662.729" width="1004.988" xmlns="http://www.w3.org/2000/svg" data-type="color">
    <g>
        <path d="M296.097 281.106v162.288h-51.665V239.406l106.656.1c45.302 0 60.735 31.948 60.735 60.968v142.92h-51.568V300.74c0-12.154-6.293-19.634-21.47-19.634zm351.287-2.438c-17.658 0-31.323 9.078-37.03 21.401-3.385 7.4-4.545 13.068-4.943 22.127h79.478c-1.022-22.127-11.055-43.528-37.505-43.528m-41.973 78.689c0 26.423 16.424 45.872 45.754 45.872 22.818 0 34.16-6.324 47.352-19.45l31.907 30.467c-20.43 20.168-41.87 32.42-79.64 32.42-49.454 0-96.78-26.966-96.78-105.558 0-67.145 41.32-105.163 95.62-105.163 55.038 0 86.833 44.507 86.833 102.803v18.609zm-95.015 85.781c-42.088 0-59.945-29.296-59.945-58.232V183.824h51.581v55.578h38.884v41.704h-38.884v100.566c0 11.85 5.598 18.43 17.9 18.43h20.984v43.036zM198.469 211.215h-52.017v-49.413h52.017zm.131 234.324c-38.952-3.743-52.205-27.37-52.205-54.633l.06-151.5H198.6zm619.952-4.36c-38.87-3.747-52.06-27.337-52.06-54.566V154.774h52.06zm181.994-252.9C953.366-41.74 506.868-56.303 219.074 118.9v19.344c287.5-147.754 695.252-146.88 732.403 64.976 12.427 70.053-27.047 143.09-97.548 185.07v54.923c84.858-31.043 171.883-131.71 146.617-254.936M477.4 590.716C278.773 609.079 71.796 580.248 42.834 425.038c-14.178-76.51 20.68-157.618 66.92-207.998V190.1C26.507 263.095-18.667 355.503 7.341 464.696 40.537 604.712 218.177 684.062 489.318 657.71c107.277-10.469 247.685-44.965 345.3-98.543v-76.113C746.046 535.8 599.473 579.415 477.4 590.716" fill="#0071c5" data-color="1"/>
        <path d="M878.73 170.166c0-2.523-1.474-3.325-4.843-3.325h-3.254v7.143c.472 0 2.836.087 3.254.087 3.37 0 4.843-1.126 4.843-3.487zm5.072 17.715h-3.854a.91.91 0 0 1-.803-.512l-5.261-8.914c-.091-.182-.546-.397-.725-.397h-2.36v8.839c0 .472-.328.984-.948.984h-3.488c-.438 0-.87-.512-.87-.984v-22.363c0-1.295.503-1.835 1.595-2.003 1.231-.162 4.577-.27 6.381-.27 6.404 0 10.28 1.889 10.28 7.905v.418c0 3.723-1.855 5.69-4.729 6.65l5.453 9.22c.034.19.162.443.162.662 0 .36-.216.765-.833.765m-9.153-29.657c-9.486 0-17.158 7.831-17.158 17.267 0 9.443 7.672 17.152 17.158 17.152 9.44 0 17.186-7.71 17.186-17.155 0-9.433-7.746-17.267-17.186-17.267m0 37.977a20.683 20.683 0 0 1-20.723-20.707 20.707 20.707 0 0 1 20.723-20.72c11.403 0 20.775 9.328 20.775 20.717 0 11.409-9.372 20.71-20.775 20.71" fill="#0071c5" data-color="1"/>
    </g>
</svg>
